<svg xmlns="http://www.w3.org/2000/svg" viewBox="0 0 1000 420" width="1000" height="420" role="img" aria-labelledby="t d">
<title id="t">Tools used across my projects</title>
<desc id="d">Five layers: Orchestration, Retrieval, Models and ML, Serving and Frontend, each listing the tools used in the projects below.</desc>
<rect width="1000" height="420" fill="#0d1117"/>
<rect x="0.5" y="0.5" width="999" height="419" fill="none" stroke="#30363d"/>
<rect x="20" y="20" width="960" height="64" rx="8" fill="#161b22" stroke="#30363d"/>
<rect x="20" y="20" width="4" height="64" rx="2" fill="#2dd4bf"/>
<text x="44" y="58" font-family="ui-monospace, SFMono-Regular, Menlo, monospace" font-size="17" font-weight="600" fill="#e6edf3">Orchestration</text>
<rect x="250" y="39" width="110" height="26" rx="13" fill="#0d1117" stroke="#30363d"/>
<text x="305.0" y="56" text-anchor="middle" font-family="ui-monospace, SFMono-Regular, Menlo, monospace" font-size="15" fill="#e6edf3">LangGraph</text>
<rect x="370" y="39" width="110" height="26" rx="13" fill="#0d1117" stroke="#30363d"/>
<text x="425.0" y="56" text-anchor="middle" font-family="ui-monospace, SFMono-Regular, Menlo, monospace" font-size="15" fill="#e6edf3">LangChain</text>
<rect x="20" y="96" width="960" height="64" rx="8" fill="#161b22" stroke="#30363d"/>
<rect x="20" y="96" width="4" height="64" rx="2" fill="#2dd4bf"/>
<text x="44" y="134" font-family="ui-monospace, SFMono-Regular, Menlo, monospace" font-size="17" font-weight="600" fill="#e6edf3">Retrieval</text>
<rect x="250" y="115" width="83" height="26" rx="13" fill="#0d1117" stroke="#30363d"/>
<text x="291.5" y="132" text-anchor="middle" font-family="ui-monospace, SFMono-Regular, Menlo, monospace" font-size="15" fill="#e6edf3">Chroma</text>
<rect x="343" y="115" width="74" height="26" rx="13" fill="#0d1117" stroke="#30363d"/>
<text x="380.0" y="132" text-anchor="middle" font-family="ui-monospace, SFMono-Regular, Menlo, monospace" font-size="15" fill="#e6edf3">FAISS</text>
<rect x="427" y="115" width="221" height="26" rx="13" fill="#0d1117" stroke="#30363d"/>
<text x="537.5" y="132" text-anchor="middle" font-family="ui-monospace, SFMono-Regular, Menlo, monospace" font-size="15" fill="#e6edf3">sentence-transformers</text>
<rect x="658" y="115" width="83" height="26" rx="13" fill="#0d1117" stroke="#30363d"/>
<text x="699.5" y="132" text-anchor="middle" font-family="ui-monospace, SFMono-Regular, Menlo, monospace" font-size="15" fill="#e6edf3">Tavily</text>
<rect x="751" y="115" width="120" height="26" rx="13" fill="#0d1117" stroke="#30363d"/>
<text x="811.0" y="132" text-anchor="middle" font-family="ui-monospace, SFMono-Regular, Menlo, monospace" font-size="15" fill="#e6edf3">Playwright</text>
<rect x="20" y="172" width="960" height="64" rx="8" fill="#161b22" stroke="#30363d"/>
<rect x="20" y="172" width="4" height="64" rx="2" fill="#2dd4bf"/>
<text x="44" y="210" font-family="ui-monospace, SFMono-Regular, Menlo, monospace" font-size="17" font-weight="600" fill="#e6edf3">Models and ML</text>
<rect x="250" y="191" width="64" height="26" rx="13" fill="#0d1117" stroke="#30363d"/>
<text x="282.0" y="208" text-anchor="middle" font-family="ui-monospace, SFMono-Regular, Menlo, monospace" font-size="15" fill="#e6edf3">Groq</text>
<rect x="324" y="191" width="120" height="26" rx="13" fill="#0d1117" stroke="#30363d"/>
<text x="384.0" y="208" text-anchor="middle" font-family="ui-monospace, SFMono-Regular, Menlo, monospace" font-size="15" fill="#e6edf3">Gemini API</text>
<rect x="454" y="191" width="138" height="26" rx="13" fill="#0d1117" stroke="#30363d"/>
<text x="523.0" y="208" text-anchor="middle" font-family="ui-monospace, SFMono-Regular, Menlo, monospace" font-size="15" fill="#e6edf3">scikit-learn</text>
<rect x="602" y="191" width="101" height="26" rx="13" fill="#0d1117" stroke="#30363d"/>
<text x="652.5" y="208" text-anchor="middle" font-family="ui-monospace, SFMono-Regular, Menlo, monospace" font-size="15" fill="#e6edf3">LightGBM</text>
<rect x="713" y="191" width="92" height="26" rx="13" fill="#0d1117" stroke="#30363d"/>
<text x="759.0" y="208" text-anchor="middle" font-family="ui-monospace, SFMono-Regular, Menlo, monospace" font-size="15" fill="#e6edf3">XGBoost</text>
<rect x="815" y="191" width="83" height="26" rx="13" fill="#0d1117" stroke="#30363d"/>
<text x="856.5" y="208" text-anchor="middle" font-family="ui-monospace, SFMono-Regular, Menlo, monospace" font-size="15" fill="#e6edf3">pandas</text>
<rect x="20" y="248" width="960" height="64" rx="8" fill="#161b22" stroke="#30363d"/>
<rect x="20" y="248" width="4" height="64" rx="2" fill="#2dd4bf"/>
<text x="44" y="286" font-family="ui-monospace, SFMono-Regular, Menlo, monospace" font-size="17" font-weight="600" fill="#e6edf3">Serving</text>
<rect x="250" y="267" width="92" height="26" rx="13" fill="#0d1117" stroke="#30363d"/>
<text x="296.0" y="284" text-anchor="middle" font-family="ui-monospace, SFMono-Regular, Menlo, monospace" font-size="15" fill="#e6edf3">FastAPI</text>
<rect x="352" y="267" width="92" height="26" rx="13" fill="#0d1117" stroke="#30363d"/>
<text x="398.0" y="284" text-anchor="middle" font-family="ui-monospace, SFMono-Regular, Menlo, monospace" font-size="15" fill="#e6edf3">Express</text>
<rect x="454" y="267" width="83" height="26" rx="13" fill="#0d1117" stroke="#30363d"/>
<text x="495.5" y="284" text-anchor="middle" font-family="ui-monospace, SFMono-Regular, Menlo, monospace" font-size="15" fill="#e6edf3">Celery</text>
<rect x="547" y="267" width="74" height="26" rx="13" fill="#0d1117" stroke="#30363d"/>
<text x="584.0" y="284" text-anchor="middle" font-family="ui-monospace, SFMono-Regular, Menlo, monospace" font-size="15" fill="#e6edf3">Redis</text>
<rect x="631" y="267" width="120" height="26" rx="13" fill="#0d1117" stroke="#30363d"/>
<text x="691.0" y="284" text-anchor="middle" font-family="ui-monospace, SFMono-Regular, Menlo, monospace" font-size="15" fill="#e6edf3">PostgreSQL</text>
<rect x="761" y="267" width="83" height="26" rx="13" fill="#0d1117" stroke="#30363d"/>
<text x="802.5" y="284" text-anchor="middle" font-family="ui-monospace, SFMono-Regular, Menlo, monospace" font-size="15" fill="#e6edf3">Docker</text>
<rect x="20" y="324" width="960" height="64" rx="8" fill="#161b22" stroke="#30363d"/>
<rect x="20" y="324" width="4" height="64" rx="2" fill="#2dd4bf"/>
<text x="44" y="362" font-family="ui-monospace, SFMono-Regular, Menlo, monospace" font-size="17" font-weight="600" fill="#e6edf3">Frontend</text>
<rect x="250" y="343" width="110" height="26" rx="13" fill="#0d1117" stroke="#30363d"/>
<text x="305.0" y="360" text-anchor="middle" font-family="ui-monospace, SFMono-Regular, Menlo, monospace" font-size="15" fill="#e6edf3">Streamlit</text>
<rect x="370" y="343" width="55" height="26" rx="13" fill="#0d1117" stroke="#30363d"/>
<text x="397.5" y="360" text-anchor="middle" font-family="ui-monospace, SFMono-Regular, Menlo, monospace" font-size="15" fill="#e6edf3">Vue</text>
<rect x="435" y="343" width="83" height="26" rx="13" fill="#0d1117" stroke="#30363d"/>
<text x="476.5" y="360" text-anchor="middle" font-family="ui-monospace, SFMono-Regular, Menlo, monospace" font-size="15" fill="#e6edf3">Plotly</text>
</svg>